<svg xmlns="http://www.w3.org/2000/svg" width="40" height="40" viewBox="0 0 40 40" fill="none">
    <path d="M20.8411 4.99919H13.0078C10.2076 4.99919 8.80742 4.99919 7.73786 5.54415C6.79705 6.02352 6.03215 6.78842 5.55278 7.72923C5.00781 8.79879 5.00781 10.1989 5.00781 12.9992V26.9992C5.00781 29.7994 5.00781 31.1996 5.55278 32.2691C6.03215 33.21 6.79705 33.9749 7.73786 34.4542C8.80742 34.9992 10.2075 34.9992 13.0078 34.9992H28.3411C29.8911 34.9992 30.6661 34.9992 31.3019 34.8288C33.0274 34.3665 34.3751 33.0187 34.8374 31.2933C35.0078 30.6575 35.0078 29.8825 35.0078 28.3325M31.6745 13.3325V3.33252M26.6745 8.33252H36.6745M17.5078 14.1659C17.5078 16.0068 16.0154 17.4992 14.1745 17.4992C12.3335 17.4992 10.8411 16.0068 10.8411 14.1659C10.8411 12.3249 12.3335 10.8325 14.1745 10.8325C16.0154 10.8325 17.5078 12.3249 17.5078 14.1659ZM24.9912 19.8628L10.8931 32.6793C10.1001 33.4002 9.7036 33.7606 9.66853 34.0728C9.63813 34.3435 9.7419 34.6119 9.94645 34.7917C10.1824 34.9992 10.7183 34.9992 11.79 34.9992H27.4344C29.8331 34.9992 31.0324 34.9992 31.9743 34.5962C33.1569 34.0904 34.099 33.1483 34.6049 31.9657C35.0078 31.0237 35.0078 29.8244 35.0078 27.4258C35.0078 26.6188 35.0078 26.2152 34.9196 25.8394C34.8087 25.3672 34.5961 24.9248 34.2966 24.5432C34.0582 24.2395 33.7431 23.9874 33.1129 23.4833L28.4509 19.7536C27.8201 19.249 27.5048 18.9967 27.1575 18.9077C26.8514 18.8292 26.5293 18.8394 26.2287 18.937C25.8877 19.0478 25.5889 19.3194 24.9912 19.8628Z" stroke="#C4CDD5" stroke-width="2.5" stroke-linecap="round" stroke-linejoin="round"/>
  </svg>