<svg xmlns="http://www.w3.org/2000/svg" width="21" height="21" viewBox="0 0 21 21" fill="none">
  <path opacity="0.32" d="M3.83398 8.79575V4.66663C3.83398 3.28591 4.95328 2.16663 6.33398 2.16663H14.6673C16.048 2.16663 17.1673 3.28591 17.1673 4.66663V8.79575C17.1673 9.34133 16.9022 9.85146 16.4459 10.1505C15.0354 11.0746 11.9257 13 10.5007 13C9.07565 13 5.96594 11.0746 4.55541 10.1505C4.09905 9.85146 3.83398 9.34133 3.83398 8.79575Z" fill="#919EAB"/>
  <path d="M3.83333 5.70913C3.40875 6.02429 3.03352 6.31252 2.73245 6.54796C2.23079 6.94025 1.91632 7.51879 1.87388 8.15421C1.81614 9.01888 1.75 10.4704 1.75 12.5833C1.75 14.5815 1.8683 15.9881 1.97883 16.8663C2.06996 17.5904 2.55474 18.1646 3.26949 18.3121C4.41552 18.5487 6.60392 18.8333 10.5 18.8333C14.3961 18.8333 16.5845 18.5487 17.7305 18.3121C18.4452 18.1646 18.93 17.5904 19.0212 16.8663C19.1317 15.9881 19.25 14.5815 19.25 12.5833C19.25 10.4704 19.1839 9.01888 19.1261 8.15421C19.0837 7.51879 18.7692 6.94025 18.2675 6.54796C17.9665 6.31252 17.5913 6.02429 17.1667 5.70913V8.79575C17.1667 9.34133 16.9016 9.85146 16.4452 10.1505C15.0347 11.0746 11.925 13 10.5 13C9.075 13 5.96529 11.0746 4.55475 10.1505C4.0984 9.85146 3.83333 9.34133 3.83333 8.79575V5.70913Z" fill="#919EAB"/>
  <path d="M6.33333 5.29163C6.33333 4.94646 6.61317 4.66663 6.95833 4.66663H10.7083C11.0535 4.66663 11.3333 4.94646 11.3333 5.29163C11.3333 5.63679 11.0535 5.91663 10.7083 5.91663H6.95833C6.61317 5.91663 6.33333 5.63679 6.33333 5.29163Z" fill="#919EAB"/>
  <path d="M6.33333 8.20829C6.33333 7.86313 6.61317 7.58329 6.95833 7.58329H13.2083C13.5535 7.58329 13.8333 7.86313 13.8333 8.20829C13.8333 8.55346 13.5535 8.83329 13.2083 8.83329H6.95833C6.61317 8.83329 6.33333 8.55346 6.33333 8.20829Z" fill="#919EAB"/>
</svg>