<svg xmlns="http://www.w3.org/2000/svg" width="20" height="20" viewBox="0 0 20 20" fill="none">
    <path d="M16.1765 10.4559V6.6C16.1765 5.33988 16.1765 4.70982 15.9072 4.22852C15.6703 3.80516 15.2924 3.46095 14.8275 3.24524C14.299 3 13.6072 3 12.2235 3H6.95294C5.56928 3 4.87745 3 4.34896 3.24524C3.88409 3.46095 3.50614 3.80516 3.26928 4.22852C3 4.70982 3 5.33988 3 6.6V14.4C3 15.6601 3 16.2902 3.26928 16.7715C3.50614 17.1948 3.88409 17.539 4.34896 17.7548C4.87745 18 5.56928 18 6.95294 18H11.2353M11.2353 9.75H6.29412M7.94118 12.75H6.29412M12.8824 6.75H6.29412M12.0588 14.25H17" stroke="#2F3AE4" stroke-linecap="round" stroke-linejoin="round"/>
  </svg>