<svg xmlns="http://www.w3.org/2000/svg" width="21" height="21" viewBox="0 0 21 21" fill="none">
  <path opacity="0.4" d="M7.375 6.125C5.99625 6.125 4.875 7.24625 4.875 8.625C4.875 10.0037 5.99625 11.125 7.375 11.125C8.75375 11.125 9.875 10.0037 9.875 8.625C9.875 7.24625 8.75375 6.125 7.375 6.125ZM6.4375 10.4175V6.8325L9.12687 8.625L6.4375 10.4175ZM17.375 1.75H3.625C2.24625 1.75 1.125 2.87125 1.125 4.25V13C1.125 14.3787 2.24625 15.5 3.625 15.5H17.375C18.7537 15.5 19.875 14.3787 19.875 13V4.25C19.875 2.87125 18.7537 1.75 17.375 1.75ZM7.375 12.375C5.30687 12.375 3.625 10.6931 3.625 8.625C3.625 6.55687 5.30687 4.875 7.375 4.875C9.44312 4.875 11.125 6.55687 11.125 8.625C11.125 10.6931 9.44312 12.375 7.375 12.375ZM17.375 11.75H12.375V10.5H17.375V11.75ZM17.375 9.25H12.375V8H17.375V9.25ZM17.375 6.75H12.375V5.5H17.375V6.75Z" fill="#2F3AE4" fill-opacity="0.5"/>
  <path d="M12.375 18V16.75H8.625V18H6.125V19.25H14.875V18H12.375Z" fill="#2F3AE4"/>
  <path d="M7.375 6.125C5.99625 6.125 4.875 7.24625 4.875 8.625C4.875 10.0037 5.99625 11.125 7.375 11.125C8.75375 11.125 9.875 10.0037 9.875 8.625C9.875 7.24625 8.75375 6.125 7.375 6.125ZM6.4375 10.4175V6.8325L9.12687 8.625L6.4375 10.4175ZM7.375 12.375C5.30687 12.375 3.625 10.6931 3.625 8.625C3.625 6.55687 5.30687 4.875 7.375 4.875C9.44312 4.875 11.125 6.55687 11.125 8.625C11.125 10.6931 9.44312 12.375 7.375 12.375ZM17.375 11.75H12.375V10.5H17.375V11.75ZM17.375 9.25H12.375V8H17.375V9.25ZM17.375 6.75H12.375V5.5H17.375V6.75Z" fill="#2F3AE4"/>
</svg>